<!-- Generated by IcoMoon.io -->
<svg version="1.1" xmlns="http://www.w3.org/2000/svg" width="24" height="24" viewBox="0 0 24 24">
<title>scan-qrcode</title>
<path d="M2.833 5.583c0 0.248-0.101 0.477-0.266 0.651-0.174 0.165-0.403 0.266-0.651 0.266s-0.477-0.101-0.651-0.266c-0.165-0.174-0.266-0.403-0.266-0.651v-4.583h4.583c0.247 0 0.477 0.101 0.651 0.266 0.165 0.174 0.266 0.403 0.266 0.651s-0.101 0.477-0.266 0.651c-0.174 0.165-0.403 0.266-0.651 0.266h-2.75v2.75zM18.417 2.833c-0.247 0-0.477-0.101-0.651-0.266-0.165-0.174-0.266-0.403-0.266-0.651s0.101-0.477 0.266-0.651c0.174-0.165 0.403-0.266 0.651-0.266h4.583v4.583c0 0.247-0.101 0.477-0.266 0.651-0.174 0.165-0.403 0.266-0.651 0.266s-0.477-0.101-0.651-0.266c-0.165-0.174-0.266-0.403-0.266-0.651v-2.75h-2.75zM21.167 18.417c0-0.247 0.101-0.477 0.266-0.651 0.174-0.165 0.403-0.266 0.651-0.266s0.477 0.101 0.651 0.266c0.165 0.174 0.266 0.403 0.266 0.651v4.583h-4.583c-0.248 0-0.477-0.101-0.651-0.266-0.165-0.174-0.266-0.403-0.266-0.651s0.101-0.477 0.266-0.651c0.174-0.165 0.403-0.266 0.651-0.266h2.75v-2.75zM5.583 21.167c0.248 0 0.477 0.101 0.651 0.266 0.165 0.174 0.266 0.403 0.266 0.651s-0.101 0.477-0.266 0.651c-0.174 0.165-0.403 0.266-0.651 0.266h-4.583v-4.583c0-0.248 0.101-0.477 0.266-0.651 0.174-0.165 0.403-0.266 0.651-0.266s0.477 0.101 0.651 0.266c0.165 0.174 0.266 0.403 0.266 0.651v2.75h2.75zM20.25 11.083c0.247 0 0.477 0.101 0.651 0.266 0.165 0.174 0.266 0.403 0.266 0.651s-0.101 0.477-0.266 0.651c-0.174 0.165-0.403 0.266-0.651 0.266h-16.5c-0.248 0-0.477-0.101-0.651-0.266-0.165-0.174-0.266-0.403-0.266-0.651s0.101-0.477 0.266-0.651c0.174-0.165 0.403-0.266 0.651-0.266h16.5z"></path>
</svg>
